<svg width="19" height="19" viewBox="0 0 19 19" fill="none" xmlns="http://www.w3.org/2000/svg">
<path d="M8.19913 4.61065C7.93914 4.35297 7.51949 4.35484 7.26181 4.61483C7.00413 4.87481 7.006 5.29447 7.26599 5.55215L8.82396 7.09628C9.45626 7.72296 9.88999 8.15425 10.1835 8.51969C10.4686 8.87468 10.5664 9.10269 10.5924 9.3069C10.6087 9.43513 10.6087 9.56487 10.5924 9.6931C10.5664 9.89731 10.4686 10.1253 10.1835 10.4803C9.88999 10.8457 9.45626 11.277 8.82396 11.9037L7.26599 13.4479C7.006 13.7055 7.00413 14.1252 7.26181 14.3852C7.51949 14.6452 7.93914 14.647 8.19913 14.3894L9.78518 12.8174C10.3825 12.2254 10.8708 11.7415 11.217 11.3103C11.5771 10.862 11.8377 10.4069 11.9073 9.8607C11.9379 9.62119 11.9379 9.37881 11.9073 9.1393C11.8377 8.59306 11.5771 8.138 11.217 7.68966C10.8708 7.25852 10.3825 6.77465 9.78518 6.18261L8.19913 4.61065Z" fill="white"/>
<path fill-rule="evenodd" clip-rule="evenodd" d="M9.5 0C4.25329 0 0 4.25329 0 9.5C0 14.7467 4.25329 19 9.5 19C14.7467 19 19 14.7467 19 9.5C19 4.25329 14.7467 0 9.5 0ZM1.32558 9.5C1.32558 4.98539 4.98539 1.32558 9.5 1.32558C14.0146 1.32558 17.6744 4.98539 17.6744 9.5C17.6744 14.0146 14.0146 17.6744 9.5 17.6744C4.98539 17.6744 1.32558 14.0146 1.32558 9.5Z" fill="white"/>
</svg>
