<svg width="19" height="19" viewBox="0 0 19 19" fill="none" xmlns="http://www.w3.org/2000/svg">
<path d="M10.8009 14.3894C11.0609 14.647 11.4805 14.6452 11.7382 14.3852C11.9959 14.1252 11.994 13.7055 11.734 13.4479L10.176 11.9037C9.54374 11.277 9.11001 10.8457 8.81653 10.4803C8.53144 10.1253 8.43364 9.8973 8.40761 9.6931C8.39126 9.56487 8.39126 9.43513 8.40761 9.3069C8.43364 9.10269 8.53144 8.87468 8.81652 8.51969C9.11001 8.15425 9.54374 7.72296 10.176 7.09628L11.734 5.55214C11.994 5.29447 11.9959 4.87481 11.7382 4.61483C11.4805 4.35484 11.0609 4.35297 10.8009 4.61064L9.21482 6.18261C8.61746 6.77464 8.12922 7.25852 7.78298 7.68966C7.42293 8.13799 7.16229 8.59306 7.09266 9.1393C7.06214 9.37881 7.06214 9.62119 7.09266 9.8607C7.16229 10.4069 7.42293 10.862 7.78298 11.3103C8.12923 11.7415 8.61745 12.2254 9.21482 12.8174L10.8009 14.3894Z" fill="white"/>
<path fill-rule="evenodd" clip-rule="evenodd" d="M9.5 19C14.7467 19 19 14.7467 19 9.5C19 4.25329 14.7467 -3.71835e-07 9.5 -8.30516e-07C4.2533 -1.2892e-06 1.2892e-06 4.25329 8.30516e-07 9.5C3.71835e-07 14.7467 4.25329 19 9.5 19ZM17.6744 9.5C17.6744 14.0146 14.0146 17.6744 9.5 17.6744C4.98539 17.6744 1.32558 14.0146 1.32558 9.5C1.32558 4.98539 4.9854 1.32558 9.5 1.32558C14.0146 1.32558 17.6744 4.98539 17.6744 9.5Z" fill="white"/>
</svg>
