<svg width="12" height="10" viewBox="0 0 12 10" fill="none" xmlns="http://www.w3.org/2000/svg">
<path fill-rule="evenodd" clip-rule="evenodd" d="M5.85711 0.0210298C5.52407 0.128568 5.0694 0.685747 4.59368 1.56928C3.90112 2.8555 3.43236 4.32471 3.32429 5.54773C3.28876 5.94982 3.30752 6.74333 3.36176 7.13334C3.54067 8.41986 4.04088 9.29476 4.84331 9.72474C5.29725 9.96796 5.86989 10.0551 6.42715 9.96572C7.54126 9.78702 8.30048 8.91087 8.57722 7.48447C8.68651 6.92108 8.72614 6.09171 8.67163 5.50794C8.53569 4.05205 7.86957 2.21364 6.99585 0.883134C6.54376 0.194663 6.17768 -0.0824666 5.85711 0.0210298ZM2.47015 1.13661C2.22673 1.27292 2.06256 1.63423 1.93207 2.32096C1.84203 2.79482 1.81771 2.74612 2.1829 2.82329C2.35377 2.8594 2.6255 2.93023 2.7867 2.98071C2.94791 3.03118 3.09606 3.07739 3.1159 3.08341C3.14319 3.09169 3.17952 3.01948 3.26492 2.78716C3.32703 2.61822 3.46517 2.28101 3.57188 2.03781L3.7659 1.59566L3.58701 1.47682C3.35146 1.32035 3.08417 1.17775 2.94072 1.13207C2.78987 1.08399 2.56012 1.08621 2.47015 1.13661ZM9.04748 1.13369C8.9028 1.1817 8.61155 1.34063 8.40619 1.48363L8.23543 1.60252L8.42738 2.04126C8.53295 2.28256 8.67022 2.61752 8.73243 2.78564C8.79464 2.95376 8.85668 3.09122 8.87031 3.09112C8.88393 3.09102 8.97099 3.06352 9.06378 3.03001C9.26068 2.9589 9.74053 2.8318 9.96784 2.79053C10.1576 2.7561 10.153 2.77763 10.0663 2.32096C9.93614 1.6363 9.77216 1.27264 9.53498 1.14282C9.43047 1.08564 9.20508 1.08142 9.04748 1.13369ZM0.694221 3.46638C0.39905 3.51927 0.207053 3.64483 0.109155 3.84903C-0.0293793 4.13796 -0.0366015 4.74843 0.0906541 5.41405C0.37593 6.90636 1.19454 8.23949 2.28533 8.98809C2.57653 9.18792 3.06042 9.43147 3.46348 9.581C3.58555 9.62631 3.58827 9.62631 3.55727 9.58142C3.31155 9.22565 3.23507 9.09728 3.11695 8.84248C2.95232 8.48728 2.87848 8.27245 2.78724 7.88346C2.51583 6.72612 2.53541 5.43393 2.84371 4.15812C2.88765 3.9762 2.91656 3.81971 2.90793 3.81038C2.87797 3.77802 2.32793 3.61703 2.03635 3.55528C1.5262 3.44727 0.996638 3.41218 0.694221 3.46638ZM10.4427 3.46807C10.0635 3.51683 9.14524 3.7489 9.09044 3.80985C9.08179 3.81946 9.11068 3.9762 9.15462 4.15812C9.46276 5.43321 9.48227 6.72275 9.21099 7.88302C9.12313 8.2588 9.02919 8.53012 8.87016 8.86743C8.76038 9.10032 8.67667 9.23962 8.44035 9.58255C8.41111 9.62501 8.42563 9.62304 8.58104 9.56351C8.89994 9.44135 9.24457 9.276 9.49795 9.12358C10.8004 8.34019 11.7555 6.75603 11.9661 5.02995C12.0503 4.33949 11.9775 3.87914 11.7493 3.66042C11.5961 3.51361 11.405 3.46169 10.982 3.45201C10.7885 3.44759 10.5458 3.45483 10.4427 3.46807Z" fill="#EF91E9"/>
</svg>
